<?xml version="1.0" encoding="utf-8"?>
<!-- Generator: Adobe Illustrator 26.0.0, SVG Export Plug-In . SVG Version: 6.00 Build 0)  -->
<svg version="1.1" id="Camada_1" xmlns="http://www.w3.org/2000/svg" xmlns:xlink="http://www.w3.org/1999/xlink" x="0px" y="0px"
	 viewBox="0 0 300 80" style="enable-background:new 0 0 300 80;" xml:space="preserve">
<style type="text/css">
	.st0{fill:#FFFFFF;}
</style>
<path class="st0" d="M38.9,44.3c0,1.2,0,2.4,0,3.6c0,0.9-0.1,1.9-0.3,2.8c-0.2,1.3-0.5,2.7-0.8,4c-0.3,1.1-0.6,2.1-1.1,3.1
	c-0.4,0.9-0.8,1.9-1.2,2.8c-0.5,0.9-1,1.8-1.6,2.7c-0.4,0.6-0.8,1.3-1.2,1.9c-0.3,0.4-0.5,0.7-0.8,1.1c-0.4,0.5-0.9,1-1.3,1.5
	c-0.3,0.4-0.6,0.7-1,1.1c-0.2,0.1-0.3,0.2-0.5,0.2c-0.2,0-0.4,0-0.5,0c-0.4,0-0.7-0.3-0.7-0.7c0-0.5,0.2-1,0.5-1.3
	c0.5-0.5,1-1.1,1.4-1.6c0.4-0.5,0.8-0.9,1.1-1.4c0.4-0.5,0.8-1,1.1-1.6c0.5-0.8,1-1.7,1.4-2.5c1.2-2.2,2.1-4.6,2.7-7.1
	c0.4-1.6,0.7-3.2,0.7-4.9c0-2.3,0.1-4.5,0.1-6.8c0-1.5-0.5-3-1.3-4.3c-0.5-0.9-1.2-1.7-2-2.3c-0.7-0.6-1.5-1.1-2.3-1.4
	c-1-0.4-2-0.7-3.1-0.7c-0.9,0-1.7,0-2.6,0.2c-0.9,0.2-1.7,0.6-2.5,1c-0.8,0.4-1.5,1-2.2,1.7c-0.8,0.8-1.4,1.8-1.8,2.9
	c-0.6,1.4-0.6,2.8-0.7,4.2c0,1.4,0,2.9-0.1,4.3c-0.1,1.4-0.5,2.7-1.1,3.9c-0.2,0.5-0.5,0.9-0.7,1.3c-0.1,0.2-0.2,0.4-0.4,0.6
	c-0.2,0.2-0.4,0.5-0.6,0.7L14,55.3c-0.1,0.1-0.1,0.1-0.2,0.2c-0.4,0.4-0.7,0.8-1.1,1.2c-0.2,0.2-0.4,0.3-0.6,0.3c-0.1,0-0.2,0-0.3,0
	c-0.4,0.1-0.6-0.2-0.8-0.5c-0.2-0.3-0.2-0.7,0.1-1c0.3-0.4,0.6-0.7,0.9-1c0.5-0.5,0.9-1.1,1.4-1.6c0.1-0.1,0.3-0.3,0.4-0.4
	c1.3-1.5,2.2-3.3,2.6-5.2c0.1-0.7,0.1-1.5,0.1-2.2c0-1.6,0-3.2,0.1-4.7c0.1-0.8,0.2-1.7,0.6-2.5c0.2-0.6,0.5-1.1,0.8-1.7
	c0.2-0.4,0.4-0.7,0.7-1c0.3-0.4,0.7-0.9,1-1.3c0.3-0.3,0.6-0.5,0.9-0.8c1.5-1.3,3.4-2.1,5.4-2.4c1-0.1,2.1-0.2,3.1,0
	c1,0.1,1.9,0.3,2.8,0.7c0.9,0.3,1.8,0.8,2.6,1.5c0.7,0.6,1.3,1.2,1.9,1.8c0.4,0.4,0.7,0.9,1,1.3c0.8,1.2,1.3,2.6,1.5,4
	c0.1,0.7,0.1,1.4,0.1,2.1C38.9,42.7,38.9,43.5,38.9,44.3z"/>
<path class="st0" d="M34.8,44.2c0,1.3,0.1,2.6,0,3.9c-0.1,1.4-0.3,2.7-0.6,4.1c-0.3,1.7-0.8,3.3-1.5,4.8c-0.4,1-0.9,2-1.4,2.9
	c-0.4,0.8-0.9,1.6-1.5,2.3c-0.6,0.9-1.3,1.7-2,2.5c-0.8,0.8-1.4,1.6-2.2,2.4c-0.4,0.4-0.7,0.8-1.1,1.2c-0.2,0.2-0.3,0.4-0.5,0.6
	c-0.1,0.1-0.3,0.2-0.4,0.2c-0.2,0-0.4,0-0.7,0c-0.2,0-0.4-0.1-0.5-0.3c-0.2-0.4-0.2-1,0.2-1.4c0.5-0.5,0.9-1,1.4-1.5
	c0.6-0.7,1.2-1.3,1.8-1.9c0.4-0.4,0.7-0.8,1-1.2c0.8-0.9,1.4-1.8,2-2.8c0.3-0.5,0.6-1,0.9-1.5c0.6-1.2,1.2-2.4,1.6-3.6
	c0.6-1.7,1.1-3.5,1.3-5.4c0.1-1.4,0.2-2.8,0.1-4.2c0-1.4,0-2.7,0-4.1c0-0.7-0.3-1.4-0.7-1.9c-0.3-0.4-0.5-0.8-0.9-1.1
	c-0.7-0.7-1.7-1.2-2.7-1.3c-0.8-0.1-1.6-0.1-2.3,0.2c-0.8,0.3-1.6,0.8-2.2,1.4c-0.9,1-1.3,2.2-1.3,3.5c0,1.6,0,3.1-0.1,4.7
	c-0.1,1.6-0.4,3.2-1,4.8c-0.4,0.9-0.8,1.7-1.2,2.6c-0.4,0.6-0.8,1.2-1.2,1.7c-0.4,0.5-0.8,1-1.3,1.5c-0.5,0.6-1.1,1.2-1.6,1.8
	c-0.3,0.3-0.6,0.6-0.9,0.9c-0.3,0.3-0.7,0.2-1.1,0.1c-0.3-0.1-0.5-0.4-0.5-0.8c0-0.4,0.1-0.7,0.4-1c0.4-0.4,0.7-0.8,1.1-1.2
	c0.6-0.7,1.3-1.4,1.9-2.1c0.3-0.4,0.6-0.8,0.9-1.2c0.4-0.6,0.8-1.1,1.1-1.7c0.2-0.4,0.3-0.7,0.5-1.1c0.5-1,0.8-2.1,0.9-3.3
	c0.1-1,0.1-2,0.1-3c0-1.3,0-2.6,0.1-3.8c0.1-1,0.4-2,1-2.8c0.3-0.5,0.6-0.9,1-1.3c0.5-0.5,1-0.9,1.6-1.2c0.7-0.4,1.4-0.7,2.2-0.8
	c0.6,0,1.1,0,1.7,0c1.2,0,2.3,0.4,3.3,1c0.7,0.4,1.2,1,1.7,1.6c0.8,0.9,1.3,2,1.4,3.1c0.1,1,0.1,2.1,0.1,3.1
	C34.8,43.7,34.8,44,34.8,44.2L34.8,44.2z"/>
<path class="st0" d="M30.7,44.6c0,1.1,0,2.1,0,3.2c0,0.7-0.1,1.4-0.2,2.1c-0.2,1.3-0.6,2.6-0.9,3.8c-0.4,1.1-0.9,2.2-1.4,3.3
	c-0.5,1.1-1.2,2.2-1.9,3.2c-0.4,0.6-0.9,1.2-1.4,1.8c-0.7,0.8-1.5,1.6-2.2,2.4l-1.2,1.3c-0.4,0.4-0.8,0.8-1.1,1.3
	c-0.3,0.3-0.7,0.4-1,0.2c-0.4-0.1-0.6-0.3-0.7-0.7c-0.1-0.4,0-0.8,0.3-1.1c0.5-0.5,1-1.1,1.6-1.7c0.4-0.4,0.8-0.9,1.2-1.3
	c0.5-0.6,1.1-1.2,1.6-1.8c0.4-0.5,0.8-1,1.2-1.5c0.3-0.4,0.6-0.8,0.8-1.2c0.4-0.7,0.8-1.5,1.2-2.2c0.6-1.2,1.1-2.4,1.4-3.6
	c0.3-1.1,0.5-2.2,0.7-3.3c0.3-2.4,0.1-4.8,0.2-7.2c0-0.4-0.3-0.8-0.7-0.8c0,0-0.1,0-0.1,0c-0.3,0-0.6,0-0.8,0.2
	c-0.2,0.2-0.3,0.4-0.3,0.7c0,1.5,0,2.9-0.1,4.4c0,2.3-0.5,4.5-1.3,6.7c-0.2,0.7-0.5,1.4-0.9,2c-0.5,0.9-1.1,1.8-1.7,2.7
	c-0.5,0.7-1,1.3-1.6,1.9c-0.3,0.4-0.7,0.7-1,1.1c-0.7,0.8-1.4,1.5-2.1,2.3c-0.3,0.3-0.6,0.7-0.9,1c-0.1,0.2-0.4,0.3-0.6,0.3
	c-0.2,0-0.3,0-0.5,0c-0.4,0-0.6-0.3-0.7-0.7c-0.1-0.4,0.1-0.9,0.4-1.2c0.4-0.4,0.8-0.8,1.1-1.2c0.7-0.8,1.4-1.5,2.1-2.3
	c0.5-0.6,1.1-1.3,1.6-1.9c0.6-0.7,1.1-1.5,1.6-2.3c0.8-1.5,1.5-3.1,1.9-4.8c0.4-1.6,0.4-3.2,0.4-4.9c0-1,0-1.9,0.1-2.9
	c0-0.5,0.1-1.1,0.3-1.5c0.6-0.9,1.3-1.6,2.5-1.6c0.6-0.1,1.2,0.1,1.8,0.4c0.4,0.3,0.7,0.6,1,1c0.4,0.4,0.4,1,0.4,1.5
	C30.6,42.6,30.7,43.6,30.7,44.6z"/>
<path class="st0" d="M53.9,40.3c-0.3-0.3-0.6-0.6-0.9-0.9c-0.3-0.3-0.5-0.6-0.5-1c-0.1-0.5,0.2-1,0.7-1.3c0.3-0.2,0.6-0.5,0.9-0.7
	c0.4-0.3,0.6-0.9,0.3-1.3c0-0.1-0.1-0.1-0.2-0.2c-0.4-0.5-0.9-0.9-1.4-1.4c-1-1-1.6-2.2-2-3.5c-0.3-1.1-0.4-2.3-0.3-3.4
	c0-0.3,0-0.6,0.1-1c0-0.8-0.1-1.5-0.4-2.2c-0.4-1.2-1.1-2.3-2-3.2c-0.8-0.9-1.7-1.7-2.6-2.5c-0.3-0.2-0.7-0.5-1.1-0.6
	c-0.1,0-0.1-0.1-0.2-0.1c-0.3-0.3-0.5-0.7-0.3-1.1c0.3-0.3,0.8-0.4,1.2-0.3c0.8,0.4,1.5,0.9,2.1,1.4c0.6,0.6,1.3,1.2,1.9,1.8
	c0.4,0.4,0.7,0.9,1.1,1.3c0.9,1.2,1.5,2.5,1.8,3.9c0.1,0.6,0.2,1.3,0.1,2c-0.1,1.7-0.1,3.4,0.8,5c0.4,0.6,0.9,1.2,1.4,1.7
	c0.4,0.4,0.8,0.8,1.1,1.2c0.3,0.4,0.5,0.9,0.5,1.4c0,0.5-0.1,1-0.3,1.4c-0.3,0.5-0.7,0.9-1.1,1.2l-0.2,0.1c-0.4,0.3-0.3,0.3,0,0.6
	c0.3,0.3,0.5,0.5,0.8,0.7c0.5,0.5,0.5,1.4,0,1.9c0,0-0.1,0.1-0.2,0.1c-0.3,0.2-0.2,0.3-0.1,0.6c0.4,0.8,0.3,1.4-0.4,1.9
	c-0.1,0.1-0.3,0.2-0.4,0.3c-0.5,0.3-0.6,0.5-0.5,1.1c0.2,0.6,0.4,1.1,0.5,1.7c0.3,0.7,0.3,1.5,0.1,2.2c-0.2,0.5-0.6,0.9-1.1,1.2
	c-0.7,0.5-1.6,0.5-2.4,0.7c-1.4,0.2-2.8,0.6-4.2,1.1c-0.9,0.3-1.8,0.8-2.5,1.5c-0.7,0.7-1.4,1.6-2,2.3c-0.1,0.2-0.2,0.3-0.3,0.5
	c-0.8,1.3-1.5,2.7-2.1,4.2c-0.4,1-0.8,1.9-1.2,2.9C38,65,37.5,66.4,37,67.8c-0.2,0.5-0.3,1-0.5,1.5c-0.1,0.4-0.5,0.6-0.8,0.5
	c0,0,0,0,0,0c-0.4-0.1-0.8-0.4-0.7-0.8c0.1-0.6,0.3-1.2,0.5-1.8c0.3-1,0.7-2,1.1-3c0.4-1,0.7-1.9,1.1-2.8c0.3-0.8,0.6-1.6,1-2.3
	c0.5-1,1-1.9,1.6-2.9c0.5-0.9,1.1-1.8,1.8-2.6c0.6-0.7,1.2-1.3,1.9-1.8c1-0.7,2.1-1.2,3.2-1.6c1.4-0.4,2.8-0.7,4.2-0.9
	c0.4-0.1,0.7-0.2,1-0.3c0.5-0.3,0.6-0.6,0.4-1.2c-0.2-0.6-0.4-1.1-0.6-1.7c-0.3-0.8-0.2-1.7,0.2-2.5c0.2-0.4,0.5-0.6,0.9-0.8
	c0.2-0.1,0.2-0.2,0.1-0.4c-0.3-0.5-0.3-1.1,0-1.6C53.6,40.6,53.7,40.4,53.9,40.3z"/>
<path class="st0" d="M4.3,40.2c0-1.6,0.3-3.2,0.8-4.8c0.3-1.3,0.8-2.6,1.4-3.8c0.4-0.7,0.7-1.4,1.1-2.1c0.4-0.7,0.9-1.4,1.4-2
	c0.5-0.6,1-1.1,1.4-1.7c0.3-0.4,0.6-0.7,0.9-1c0.5-0.5,1-0.9,1.6-1.4c0.4-0.3,0.8-0.6,1.2-0.9c0.5-0.3,1-0.7,1.5-1
	c0.8-0.5,1.6-0.9,2.5-1.3c0.8-0.4,1.6-0.7,2.4-0.9c1.1-0.3,2.2-0.6,3.3-0.8c1.8-0.3,3.6-0.4,5.4-0.3c0.6,0,1.2,0.1,1.8,0.2
	c0.4,0,0.8,0.4,0.8,0.8c0.1,0.5-0.1,0.9-0.6,1.1c-0.1,0-0.2,0.1-0.4,0.1c-1.2,0-2.5-0.1-3.7-0.1c-1.7,0-3.4,0.2-5.1,0.7
	c-1.6,0.4-3.1,1-4.5,1.8c-0.9,0.5-1.7,1.1-2.6,1.7c-1.3,0.9-2.4,1.9-3.4,3.1c-0.4,0.4-0.8,0.9-1.1,1.4c-0.4,0.6-0.9,1.3-1.3,1.9
	C9.1,31,9.1,31.2,9,31.3c-0.4,0.7-0.7,1.4-1,2.1c-0.4,1.1-0.8,2.3-1.1,3.4c-0.3,1.2-0.5,2.4-0.5,3.6c0,0.4-0.1,0.8-0.4,1
	c-0.4,0.3-0.9,0.3-1.3,0c-0.2-0.2-0.3-0.5-0.3-0.7C4.4,40.6,4.4,40.4,4.3,40.2z"/>
<path class="st0" d="M47,43c0,1,0,2,0,3c0,0.4-0.4,0.8-0.8,0.8c-0.3,0.1-0.7,0-0.9-0.3c-0.2-0.2-0.3-0.5-0.3-0.8
	c0-0.9,0-1.8-0.1-2.7c0-1.2,0-2.3-0.1-3.5c-0.1-1.5-0.5-3-1.1-4.4c-0.3-0.7-0.6-1.4-0.9-2c-0.3-0.5-0.6-1-1-1.5
	c-0.8-1.1-1.7-2.2-2.7-3.1c-0.5-0.4-1-0.8-1.6-1.2c-0.7-0.5-1.3-0.9-2-1.3c-1.2-0.6-2.5-1.1-3.8-1.4c-1.2-0.3-2.4-0.4-3.5-0.5
	c-0.6,0-1.3-0.1-1.9-0.1c-0.3-0.1-0.6-0.3-0.6-0.7c-0.1-0.4,0-0.8,0.3-1c0.1-0.1,0.3-0.2,0.5-0.2c1,0,2-0.1,3,0c1,0.1,2,0.3,2.9,0.5
	c1.7,0.4,3.4,1.1,5,2c0.7,0.4,1.3,0.9,2,1.4c1.2,0.8,2,1.8,3,2.8c0.9,1.1,1.7,2.4,2.4,3.6c1.6,2.9,2.3,6.3,2.1,9.6
	C47,42.6,47,42.8,47,43z"/>
<path class="st0" d="M27.9,14.2c0.9,0,2.1,0.1,3.2,0.2c1.5,0.2,3.1,0.5,4.5,0.9c1.2,0.3,2.4,0.8,3.5,1.4c0.8,0.4,1.6,0.8,2.4,1.2
	c0.5,0.3,1,0.6,1.4,0.9c0.7,0.5,1.4,0.9,2,1.5c0.6,0.5,1.2,1.1,1.7,1.6c0.3,0.3,0.6,0.6,0.9,0.9c0.3,0.4,0.3,0.9,0,1.2
	c-0.5,0.5-1.2,0.5-1.6,0c-0.4-0.5-0.9-0.9-1.4-1.3c-0.5-0.4-1-0.8-1.5-1.2c-0.5-0.4-0.9-0.7-1.4-1c-0.3-0.2-0.7-0.4-1-0.6
	c-0.8-0.4-1.6-0.8-2.4-1.2c-0.4-0.2-0.8-0.3-1.2-0.5c-1.2-0.5-2.5-0.9-3.8-1.2c-0.8-0.2-1.7-0.3-2.5-0.4c-1-0.1-2-0.2-3-0.2
	c-0.9,0-1.9,0.1-2.8,0.2c-1,0.1-1.9,0.3-2.9,0.5c-0.4,0.1-0.7,0-1-0.2c-0.3-0.3-0.4-0.7-0.2-1.1c0.1-0.3,0.4-0.6,0.7-0.7
	c1.2-0.3,2.4-0.5,3.7-0.6C25.9,14.3,26.8,14.2,27.9,14.2z"/>
<path class="st0" d="M7.3,49.8c-0.4,0.1-0.7-0.1-0.9-0.5c-0.1-0.4-0.1-0.9,0.2-1.2c0.4-0.4,0.8-0.8,1.2-1.3c0.3-0.3,0.5-0.8,0.5-1.2
	c0-1.8,0-3.6,0.1-5.4c0.1-1.4,0.3-2.8,0.8-4.2c0.4-1.4,1-2.7,1.7-3.9c0.5-0.9,1-1.7,1.7-2.5c0.4-0.4,0.7-0.8,1.1-1.2
	c0.1-0.1,0.2-0.1,0.4-0.2c0.1,0,0.2,0,0.2,0c0.3,0,0.5-0.1,0.7,0.2c0.2,0.3,0.3,0.7,0.2,1.1c-0.1,0.2-0.1,0.3-0.3,0.4
	c-0.4,0.5-0.9,1-1.3,1.6c-0.6,0.9-1.2,1.8-1.6,2.8c-0.7,1.5-1.2,3-1.5,4.6c-0.2,1.2-0.1,2.5-0.2,3.7c0,0.9,0,1.9-0.1,2.8
	c0,0.7-0.2,1.4-0.5,2c-0.2,0.3-0.3,0.5-0.5,0.7c-0.4,0.4-0.7,0.8-1.1,1.2C7.9,49.8,7.9,49.8,7.3,49.8z"/>
<path class="st0" d="M43,43.9c0,1.6-0.1,3.1-0.1,4.7c0,0.8-0.2,1.6-0.2,2.4c-0.1,0.3-0.2,0.6-0.5,0.7c-0.1,0-0.1,0.1-0.2,0.1
	c-0.1,0-0.3,0-0.5,0c-0.4,0-0.8-0.3-0.8-0.7c0,0,0-0.1,0-0.1c0-0.4,0-0.9,0.1-1.3c0.1-1.3,0.2-2.6,0.2-3.9c0-1.6,0-3.1,0-4.7
	c0-1.2-0.2-2.4-0.7-3.5c-0.3-0.8-0.7-1.6-1.1-2.4c-0.4-0.6-0.8-1.2-1.2-1.7c-0.5-0.6-1-1.1-1.5-1.6c-0.4-0.4-0.3-1.4,0.3-1.6
	c0.4-0.2,0.9-0.1,1.2,0.2c0.5,0.5,1,1,1.5,1.5c0.4,0.5,0.7,0.9,1.1,1.5c0.4,0.6,0.7,1.2,1,1.8c0.6,1.3,1.1,2.7,1.3,4.1
	C43,40.8,43.1,42.4,43,43.9z"/>
<path class="st0" d="M27.7,10.2c0.8,0,1.7-0.1,2.5,0c1.2,0.1,2.3,0.3,3.5,0.4c0.5,0.1,0.9,0.2,1.4,0.3c0.4,0,0.6,0.3,0.7,0.6
	c0.2,0.5-0.1,1.2-0.5,1.3c-0.4,0-0.7,0-1.1,0c-1.6-0.3-3.2-0.6-4.8-0.6c-1.3,0-2.6-0.1-3.8,0c-2,0.1-4,0.5-5.9,1
	c-1.3,0.3-2.5,0.8-3.7,1.3c-0.3,0.2-0.6,0.3-1,0.4c-0.4,0.1-0.7,0.1-1.1,0c-0.4-0.1-0.6-0.8-0.4-1.2c0.1-0.3,0.3-0.5,0.6-0.6
	c0.9-0.4,1.8-0.7,2.6-1.1c1.5-0.6,3.1-1,4.7-1.3c1.9-0.4,3.8-0.6,5.7-0.5C27.4,10.2,27.5,10.2,27.7,10.2z"/>
<path class="st0" d="M12.4,41.3c0-1.8,0.4-3.6,1-5.2c0.3-0.7,0.6-1.4,1-2c0.4-0.6,0.8-1.3,1.3-1.9c0.4-0.5,0.8-1,1.2-1.4
	c0.6-0.6,1.3-1.1,2.1-1.6c0.6-0.4,1.2-0.8,1.9-1.2c0.7-0.3,1.4-0.6,2.1-0.8c0.8-0.2,1.5-0.4,2.3-0.6c0.4-0.1,0.7,0,1,0.2
	c0.4,0.4,0.4,1.5-0.4,1.7c-0.6,0.1-1.2,0.2-1.8,0.4s-1.2,0.4-1.7,0.6c-0.4,0.2-0.7,0.3-1.1,0.5c-0.5,0.3-1.1,0.6-1.6,1
	c-0.5,0.4-1,0.8-1.4,1.3c-0.5,0.5-1,1.1-1.4,1.7c-0.4,0.6-0.7,1.2-1,1.8c-0.8,1.6-1.3,3.4-1.4,5.2c0,0.3-0.1,0.7-0.1,1
	c-0.1,0.3-0.3,0.5-0.7,0.5c-0.1,0-0.3,0-0.4,0c-0.6,0.1-0.8-0.3-0.9-0.9C12.4,41.6,12.4,41.5,12.4,41.3z"/>
<path class="st0" d="M6.8,26.4c-0.4,0.1-0.7-0.2-0.9-0.5c-0.2-0.4-0.1-0.8,0.1-1.1c0.5-0.5,0.9-1.1,1.4-1.6c0.3-0.4,0.6-0.7,1-1.1
	c0.5-0.5,1-0.9,1.5-1.3c0.4-0.4,0.9-0.7,1.3-1.1c0.7-0.5,1.5-1,2.2-1.5c0.8-0.5,1.6-0.9,2.3-1.3c0.4-0.2,0.9-0.4,1.3-0.6
	c0.4-0.1,0.8-0.1,1.1,0.2c0.4,0.4,0.4,1.1,0,1.5c-0.1,0.1-0.2,0.1-0.3,0.2c-0.8,0.3-1.5,0.7-2.3,1.1c-0.5,0.2-0.9,0.5-1.3,0.8
	c-0.4,0.3-0.8,0.5-1.2,0.8c-0.4,0.3-0.8,0.6-1.2,0.9c-1.2,0.9-2.3,2-3.3,3.1C8.3,25.1,8,25.6,7.6,26C7.3,26.4,7.3,26.4,6.8,26.4z"/>
<path class="st0" d="M49.9,34.6c0,0.5-0.3,1-0.8,1c0,0,0,0,0,0c-0.5,0.1-1-0.2-1.1-0.7c-0.5-1.3-1.1-2.6-1.8-3.9
	c-0.4-0.6-0.8-1.3-1.2-1.8c-0.5-0.7-1.1-1.3-1.6-1.9c-0.3-0.3-0.3-0.8-0.1-1.1c0.1-0.3,0.4-0.5,0.8-0.5c0.3-0.1,0.7,0.1,0.9,0.3
	c0.4,0.5,0.8,1,1.2,1.5c0.5,0.7,1,1.4,1.5,2.1c0.4,0.6,0.8,1.3,1.1,2c0.4,0.8,0.7,1.6,1,2.4C49.9,34.1,49.9,34.3,49.9,34.6z"/>
<path class="st0" d="M14.4,45.8c0,1.3-0.3,2.5-1,3.6c-0.3,0.5-0.7,1.1-1.1,1.6c-0.4,0.5-0.8,1-1.3,1.5c-0.3,0.3-0.5,0.5-0.8,0.8
	c-0.1,0.1-0.2,0.3-0.3,0.4c-0.4,0.3-1,0.3-1.4,0c-0.1-0.1-0.2-0.1-0.2-0.2c-0.1-0.5,0-1,0.3-1.4c0.5-0.5,1-1,1.4-1.5
	c0.6-0.6,1.1-1.3,1.6-2c0.5-0.9,0.8-1.9,0.8-2.9c-0.1-0.4,0.1-0.8,0.5-1c0.4-0.2,0.8-0.2,1.1,0c0.3,0.2,0.5,0.5,0.4,0.8
	C14.4,45.6,14.4,45.7,14.4,45.8z"/>
<path class="st0" d="M35,19.5c0.5-0.1,0.9,0.2,1.3,0.4c0.7,0.2,1.3,0.5,1.9,0.8c0.7,0.4,1.5,0.9,2.2,1.3c0.4,0.2,0.7,0.5,1.1,0.7
	c0.2,0.1,0.4,0.3,0.4,0.5c0.1,0.3,0.1,0.7-0.1,1c-0.1,0.2-0.3,0.3-0.5,0.3c-0.2,0-0.5,0-0.7,0c-0.1,0-0.2,0-0.3-0.1
	c-0.6-0.4-1.1-0.8-1.7-1.1s-1.1-0.7-1.7-1c-0.6-0.3-1.2-0.5-1.8-0.8c-0.3-0.1-0.6-0.2-0.9-0.4c-0.3-0.1-0.4-0.4-0.4-0.6
	c0-0.1,0-0.2,0-0.4c0-0.4,0.2-0.7,0.6-0.8c0,0,0.1,0,0.1,0L35,19.5z"/>
<path class="st0" d="M22.7,23.1c0.5-0.1,1,0.3,1.1,0.8c0,0.2,0,0.4-0.1,0.6c-0.2,0.2-0.4,0.4-0.6,0.5c-0.5,0.2-1.1,0.4-1.7,0.6
	c-0.7,0.3-1.4,0.6-2.1,1c-0.5,0.3-1,0.6-1.5,0.9c-0.4,0.2-0.9,0.2-1.2-0.1c-0.3-0.3-0.4-0.7-0.2-1.1c0.1-0.3,0.3-0.5,0.5-0.6
	c0.6-0.3,1.2-0.7,1.7-1c1.1-0.6,2.3-1.2,3.6-1.5C22.3,23.1,22.5,23.1,22.7,23.1z"/>
<path class="st0" d="M34.8,28.8c0.1,0.5-0.3,1-0.8,1.1c-0.1,0-0.3,0-0.4-0.1c-0.3-0.1-0.6-0.2-0.9-0.4c-1-0.4-1.9-0.7-3-0.8
	c-0.3,0-0.6-0.2-0.7-0.5c-0.2-0.3-0.2-0.7,0-1c0.1-0.3,0.5-0.5,0.8-0.5c0.5,0,0.9,0.1,1.4,0.2c1,0.2,2,0.5,3,1
	c0.2,0.1,0.3,0.2,0.5,0.3C34.7,28.2,34.9,28.5,34.8,28.8z"/>
<path class="st0" d="M38,13.3c-0.1-0.8,0.7-1.2,1.5-0.9c1,0.4,1.9,0.9,2.8,1.3c0.4,0.1,0.6,0.4,0.7,0.8c0.1,0.5-0.2,1-0.7,1.1
	c-0.3,0.1-0.6,0-0.8-0.1c-0.9-0.4-1.9-0.9-2.8-1.3C38.2,14.1,38,13.7,38,13.3z"/>
<path class="st0" d="M69.3,18h8.2c1.2,0,2.3,0.2,3.4,0.5c0.9,0.3,1.7,0.8,2.4,1.5c0.6,0.6,1.1,1.4,1.5,2.2c0.3,0.9,0.5,1.8,0.5,2.7
	c0,1.3-0.3,2.6-0.9,3.8c-0.6,1.1-1.6,2-2.7,2.6l4.9,8.9h-5.5L77,32.1h-2.8v8.2h-4.9V18z M77.3,28c1.7,0,3-1.4,3-3.1
	c0-0.7-0.3-1.5-0.8-2c-0.6-0.6-1.4-0.8-2.2-0.8h-3.1V28H77.3z"/>
<path class="st0" d="M87.8,18H103v4.4H92.8v4.3h7.9V31h-7.9v4.8h10.9v4.4H87.8V18z"/>
<path class="st0" d="M105.4,18h8.4c1.6,0,3.2,0.2,4.7,0.7c1.4,0.4,2.7,1.1,3.8,2c1.1,1,1.9,2.2,2.5,3.5c0.6,1.6,0.9,3.3,0.9,5
	c0,1.6-0.3,3.3-0.9,4.8c-0.6,1.3-1.4,2.5-2.5,3.4c-1.1,0.9-2.4,1.6-3.8,2.1c-1.5,0.5-3.1,0.7-4.7,0.7h-8.4V18z M113.5,35.8
	c2.2,0,3.9-0.6,5.1-1.7c1.2-1.2,1.8-2.8,1.8-4.8c0-0.9-0.1-1.9-0.4-2.8c-0.3-0.8-0.7-1.5-1.3-2.1c-0.6-0.6-1.3-1.1-2.1-1.4
	c-1-0.3-2-0.5-3.1-0.5h-3.1v13.3L113.5,35.8z"/>
<path class="st0" d="M127.6,18h15.2v4.4h-10.2v4.3h7.9V31h-7.9v4.8h10.9v4.4h-15.9V18z"/>
<path class="st0" d="M152.9,18h8.3c1.2,0,2.4,0.1,3.5,0.5c0.9,0.3,1.7,0.7,2.3,1.3c0.6,0.5,1,1.1,1.3,1.8c0.3,0.7,0.4,1.4,0.4,2.2
	c0,0.6-0.1,1.3-0.4,1.9c-0.2,0.5-0.5,1-0.9,1.4c-0.3,0.4-0.7,0.7-1.1,0.9c-0.3,0.2-0.6,0.3-1,0.4c0.5,0.1,0.9,0.3,1.4,0.5
	c1.2,0.5,2.1,1.5,2.7,2.6c0.3,0.7,0.5,1.5,0.5,2.3c0,1-0.2,2-0.6,2.9c-0.4,0.8-1,1.5-1.7,1.9c-0.8,0.5-1.8,0.9-2.7,1.1
	c-1.2,0.2-2.4,0.4-3.6,0.4h-8.3V18z M160.8,26.9c0.4,0,0.7,0,1.1-0.1c0.3-0.1,0.7-0.2,1-0.4c0.3-0.2,0.5-0.5,0.7-0.8
	c0.2-0.4,0.3-0.8,0.3-1.2c0-0.4-0.1-0.8-0.3-1.2c-0.2-0.3-0.4-0.6-0.7-0.8c-0.3-0.2-0.6-0.3-1-0.4c-0.4-0.1-0.7-0.1-1.1-0.1h-3v5
	L160.8,26.9z M161.1,36.4c0.4,0,0.8,0,1.2-0.1c0.4-0.1,0.8-0.2,1.2-0.4c0.4-0.2,0.7-0.5,1-0.9c0.3-0.5,0.4-1,0.4-1.6
	c0-0.5-0.1-1-0.4-1.5c-0.2-0.4-0.6-0.7-0.9-0.9c-0.4-0.2-0.8-0.4-1.2-0.4c-0.4-0.1-0.8-0.1-1.2-0.1h-3.3v5.8H161.1z"/>
<path class="st0" d="M171.7,18h8.2c1.2,0,2.3,0.2,3.4,0.5c0.9,0.3,1.7,0.8,2.4,1.5c0.6,0.6,1.1,1.4,1.5,2.2c0.3,0.9,0.5,1.8,0.5,2.7
	c0,1.3-0.3,2.6-1,3.8c-0.6,1.1-1.6,2-2.7,2.6l4.9,8.9h-5.5l-4.1-8.2h-2.8v8.2h-4.9V18z M179.7,28c1.7,0,3-1.4,3-3.1
	c0-0.7-0.3-1.5-0.8-2c-0.6-0.6-1.4-0.8-2.2-0.8h-3.1V28H179.7z"/>
<path class="st0" d="M196.6,18h5.6l8.1,22.2h-5.5l-1.7-5.1h-7.8l-1.7,5.1h-5.3L196.6,18z M201.9,31.2l-2.7-8.4l-2.8,8.4L201.9,31.2z
	"/>
<path class="st0" d="M212.7,33.6c0.3,0.3,0.7,0.7,1,0.9c0.4,0.3,0.8,0.6,1.3,0.9c0.5,0.3,1,0.5,1.6,0.6c0.6,0.2,1.2,0.3,1.8,0.2
	c0.4,0,0.8-0.1,1.1-0.2c0.4-0.1,0.7-0.3,1-0.5c0.3-0.2,0.6-0.5,0.7-0.8c0.2-0.3,0.3-0.7,0.3-1c0-0.8-0.5-1.6-1.2-1.9
	c-1.2-0.6-2.5-1.1-3.8-1.3c-0.8-0.2-1.6-0.5-2.3-0.9c-0.7-0.4-1.3-0.8-1.9-1.4c-0.5-0.5-0.9-1.1-1.2-1.8c-0.3-0.7-0.4-1.5-0.4-2.3
	c0-0.9,0.2-1.8,0.5-2.6c0.3-0.8,0.9-1.6,1.5-2.2c0.7-0.7,1.6-1.2,2.5-1.5c1.2-0.4,2.4-0.6,3.6-0.5c1,0,2,0.1,3,0.4
	c0.8,0.2,1.5,0.5,2.2,0.8c0.5,0.3,1,0.6,1.5,1c0.4,0.3,0.7,0.6,0.9,0.8l-2.9,3.2c-0.2-0.2-0.5-0.4-0.8-0.6c-0.3-0.2-0.7-0.5-1.1-0.7
	c-0.4-0.2-0.9-0.4-1.3-0.5c-0.5-0.1-1-0.2-1.5-0.2c-0.4,0-0.7,0.1-1,0.2c-0.3,0.1-0.6,0.3-0.9,0.5c-0.3,0.2-0.5,0.4-0.7,0.7
	c-0.2,0.2-0.2,0.5-0.2,0.8c0,0.8,0.4,1.4,1.2,1.8c1,0.6,2.1,0.9,3.3,1.2c0.8,0.2,1.6,0.5,2.4,0.8c0.8,0.3,1.5,0.8,2.1,1.3
	c0.6,0.6,1.1,1.3,1.5,2c0.4,0.9,0.6,1.9,0.6,2.9c0,1-0.2,1.9-0.7,2.8c-0.4,0.8-1.1,1.6-1.8,2.2c-0.8,0.6-1.7,1.1-2.7,1.4
	c-1.1,0.4-2.2,0.5-3.3,0.5c-1,0-2-0.1-3-0.3c-0.8-0.2-1.7-0.5-2.5-0.8c-0.7-0.3-1.4-0.7-2-1.2c-0.5-0.4-1.1-0.9-1.5-1.4L212.7,33.6z
	"/>
<path class="st0" d="M229,18h5v22.2h-5V18z"/>
<path class="st0" d="M236.7,18h5v17.7h10.6v4.5h-15.6V18z"/>
<path class="st0" d="M261.3,18h8.3c1.2,0,2.3,0.2,3.4,0.5c0.9,0.3,1.7,0.8,2.4,1.5c0.6,0.6,1.1,1.4,1.5,2.2c0.3,0.9,0.5,1.8,0.5,2.7
	c0,1.3-0.3,2.6-1,3.8c-0.6,1.1-1.6,2-2.7,2.6l4.9,8.9h-5.5l-4.1-8.2h-2.8v8.2h-4.9V18z M269.3,28c1.7,0,3-1.4,3-3.1
	c0-0.8-0.3-1.5-0.8-2c-0.6-0.6-1.4-0.8-2.2-0.8h-3.1V28H269.3z"/>
<path class="st0" d="M279.8,18h8.1c1.2,0,2.4,0.2,3.5,0.6c0.9,0.4,1.7,0.9,2.4,1.6c0.6,0.6,1.1,1.4,1.4,2.3c0.3,0.9,0.5,1.8,0.5,2.7
	c0,1.1-0.2,2.2-0.6,3.1c-0.4,0.9-1,1.6-1.7,2.2c-0.7,0.6-1.5,1.1-2.4,1.4c-0.9,0.3-1.9,0.5-2.9,0.5h-3.4v7.8h-4.9V18z M287.7,28.3
	c0.8,0,1.6-0.3,2.2-0.8c0.6-0.6,0.8-1.4,0.8-2.2c0-0.8-0.3-1.7-0.8-2.3c-0.6-0.6-1.4-0.9-2.2-0.9h-2.9v6.2L287.7,28.3z"/>
<path class="st0" d="M79.7,59.5c-0.2,0.3-0.4,0.5-0.6,0.7c-0.3,0.3-0.7,0.6-1,0.8c-0.4,0.3-0.9,0.5-1.4,0.6
	c-0.6,0.2-1.2,0.3-1.7,0.3c-0.8,0-1.7-0.2-2.5-0.5c-0.7-0.3-1.4-0.8-1.9-1.3c-0.5-0.6-1-1.3-1.3-2c-0.6-1.6-0.6-3.4,0-5
	c0.3-0.8,0.7-1.5,1.3-2.1c0.5-0.6,1.2-1.1,1.9-1.4c0.8-0.3,1.6-0.5,2.5-0.5c1.1,0,2.2,0.3,3.1,0.8c0.4,0.2,0.7,0.5,1,0.8
	c0.2,0.2,0.5,0.5,0.7,0.8l-1.2,1.1c-0.2-0.2-0.3-0.4-0.5-0.7c-0.2-0.2-0.5-0.4-0.7-0.6c-0.3-0.2-0.6-0.3-1-0.5
	c-0.4-0.1-0.8-0.2-1.3-0.2c-1.2,0-2.4,0.5-3.2,1.4c-0.4,0.5-0.7,1-0.8,1.5c-0.2,0.6-0.3,1.2-0.3,1.9c0,0.6,0.1,1.3,0.3,1.9
	c0.2,0.6,0.5,1.1,0.8,1.5c0.4,0.4,0.8,0.8,1.3,1c0.6,0.3,1.2,0.4,1.8,0.4c0.5,0,1-0.1,1.4-0.2c0.4-0.1,0.7-0.3,1-0.5
	c0.2-0.2,0.5-0.4,0.7-0.6c0.2-0.2,0.3-0.4,0.4-0.5L79.7,59.5z"/>
<path class="st0" d="M93.8,60.4c-0.1,0.1-0.2,0.2-0.4,0.4c-0.2,0.2-0.5,0.4-0.8,0.5c-0.4,0.2-0.7,0.3-1.1,0.4
	c-0.5,0.1-1,0.2-1.4,0.2c-0.6,0-1.2-0.1-1.8-0.3c-0.5-0.2-1-0.5-1.4-0.9c-0.4-0.4-0.7-0.9-0.9-1.4c-0.2-0.6-0.3-1.2-0.3-1.9
	c0-0.6,0.1-1.2,0.3-1.7c0.6-1.6,2.2-2.7,3.9-2.7c0.7,0,1.3,0.1,1.9,0.4c0.5,0.3,1,0.7,1.3,1.1c0.3,0.5,0.6,1,0.7,1.6
	c0.2,0.6,0.2,1.2,0.2,1.9h-6.7c0,0.4,0.1,0.7,0.2,1c0.1,0.3,0.4,0.6,0.6,0.8c0.3,0.2,0.6,0.4,0.9,0.5c0.3,0.1,0.7,0.2,1,0.2
	c0.6,0,1.2-0.1,1.8-0.4c0.4-0.2,0.7-0.4,1-0.7L93.8,60.4z M92.3,56.6c0-0.6-0.3-1.2-0.7-1.7c-0.5-0.5-1.1-0.7-1.8-0.7
	c-0.4,0-0.7,0.1-1.1,0.2c-0.6,0.2-1.1,0.7-1.3,1.3c-0.1,0.3-0.2,0.6-0.2,0.9L92.3,56.6z"/>
<path class="st0" d="M100.5,54.8v-0.9c0-0.3,0-0.5,0-0.8h1.6l0.1,1.4c0.1-0.2,0.2-0.3,0.4-0.5c0.2-0.2,0.4-0.4,0.6-0.5
	c0.2-0.2,0.5-0.3,0.8-0.4c0.3-0.1,0.7-0.2,1-0.2c0.2,0,0.3,0,0.5,0c0.1,0,0.3,0.1,0.4,0.1l-0.4,1.6c-0.3-0.1-0.6-0.1-0.8-0.1
	c-0.7,0-1.3,0.3-1.8,0.8c-0.2,0.2-0.4,0.5-0.5,0.8c-0.1,0.3-0.2,0.7-0.2,1v4.5h-1.7L100.5,54.8z"/>
<path class="st0" d="M112.4,54.5h-1.6v-1.4h1.6v-2.8h1.6v2.8h2.5v1.4h-2.5v4.2c0,0.5,0.1,1,0.3,1.4c0.2,0.3,0.6,0.4,0.9,0.4
	c0.3,0,0.5,0,0.8-0.1c0.2-0.1,0.4-0.3,0.6-0.4l0.8,1c-0.6,0.7-1.5,1-2.4,1c-0.9,0-1.6-0.2-2-0.7c-0.4-0.5-0.6-1.2-0.6-2.3
	L112.4,54.5z"/>
<path class="st0" d="M123.3,49.7h1.8v1.8h-1.8V49.7z M123.4,53.1h1.6v8.5h-1.6V53.1z"/>
<path class="st0" d="M132.6,54.5H131v-1.4h1.6v-0.7c0-0.5,0.1-1,0.2-1.5c0.1-0.4,0.4-0.7,0.7-1c0.3-0.3,0.6-0.5,0.9-0.6
	c0.4-0.1,0.7-0.2,1.1-0.2c0.5,0,0.9,0.1,1.3,0.2c0.4,0.1,0.9,0.4,1.2,0.7l-0.8,1.1c-0.4-0.4-0.9-0.6-1.4-0.6c-0.4,0-0.8,0.1-1.1,0.5
	c-0.3,0.3-0.4,0.8-0.4,1.6v0.5h2.4v1.4h-2.4v7.1h-1.6L132.6,54.5z"/>
<path class="st0" d="M143.1,49.7h1.9v1.8h-1.8L143.1,49.7z M143.2,53.1h1.7v8.5h-1.7V53.1z"/>
<path class="st0" d="M159.2,60.4c-0.4,0.4-0.9,0.8-1.4,1c-0.6,0.3-1.3,0.4-1.9,0.4c-0.6,0-1.3-0.1-1.9-0.3c-1.1-0.4-1.9-1.3-2.3-2.4
	c-0.2-0.6-0.3-1.2-0.3-1.8c0-0.6,0.1-1.2,0.3-1.8c0.2-0.5,0.5-1,0.9-1.4c1.4-1.3,3.4-1.7,5.1-0.9c0.5,0.2,1,0.6,1.4,1l-1.1,1
	c-0.3-0.3-0.6-0.6-0.9-0.8c-0.4-0.2-0.9-0.3-1.3-0.3c-0.4,0-0.8,0.1-1.2,0.2c-0.3,0.2-0.6,0.4-0.9,0.7c-0.2,0.3-0.4,0.6-0.5,1
	c-0.1,0.4-0.2,0.8-0.2,1.2c0,0.4,0.1,0.8,0.2,1.1c0.1,0.4,0.3,0.7,0.5,1c0.5,0.6,1.3,1,2.1,0.9c0.5,0,0.9-0.1,1.3-0.3
	c0.4-0.2,0.7-0.4,1-0.8L159.2,60.4z"/>
<path class="st0" d="M170.7,60.6c-0.3,0.4-0.8,0.8-1.3,1c-0.5,0.2-1.1,0.3-1.6,0.3c-0.4,0-0.7,0-1.1-0.1c-0.3-0.1-0.7-0.2-1-0.5
	c-0.3-0.2-0.5-0.5-0.7-0.8c-0.2-0.4-0.3-0.8-0.3-1.2c0-0.8,0.3-1.6,1-2.2c0.6-0.5,1.6-0.8,2.8-0.8c0.2,0,0.4,0,0.6,0l0.6,0l0.5,0
	c0.1,0,0.2,0,0.3,0V56c0-0.5-0.2-1-0.6-1.4c-0.5-0.3-1-0.4-1.6-0.4c-0.5,0-1.1,0.1-1.6,0.3c-0.3,0.1-0.7,0.3-1,0.5l-0.8-1.1
	c0.2-0.1,0.3-0.3,0.5-0.4c0.2-0.1,0.5-0.2,0.7-0.3c0.3-0.1,0.6-0.2,1-0.3c0.4-0.1,0.8-0.1,1.2-0.1c0.9-0.1,1.8,0.2,2.6,0.8
	c0.6,0.6,1,1.4,0.9,2.3v5c0,0.3,0,0.5,0,0.8h-1.5V60.6z M170.7,57.6c-0.1,0-0.2,0-0.3,0c-0.1,0-0.3,0-0.5,0l-0.6,0
	c-0.2,0-0.4,0-0.6,0c-0.4,0-0.8,0-1.1,0.2c-0.3,0.1-0.5,0.2-0.7,0.4c-0.2,0.2-0.3,0.3-0.3,0.5c-0.1,0.2-0.1,0.4-0.1,0.6
	c0,0.4,0.2,0.8,0.5,1.1c0.4,0.3,0.9,0.4,1.3,0.4c0.3,0,0.6-0.1,0.9-0.2c0.3-0.1,0.5-0.3,0.8-0.4c0.2-0.2,0.4-0.4,0.5-0.6
	c0.1-0.2,0.2-0.5,0.2-0.7L170.7,57.6z"/>
<path class="st0" d="M185.2,60.5c-0.1,0.1-0.2,0.2-0.3,0.3c-0.2,0.2-0.4,0.3-0.6,0.5c-0.3,0.2-0.5,0.3-0.8,0.4
	c-0.4,0.1-0.7,0.2-1.1,0.2c-1,0-2-0.4-2.7-1.2c-0.4-0.4-0.6-0.9-0.8-1.4c-0.2-0.6-0.3-1.2-0.3-1.8c0-0.7,0.1-1.4,0.4-2.1
	c0.3-0.5,0.6-1,1.1-1.4c0.4-0.4,0.9-0.6,1.4-0.8c0.5-0.2,0.9-0.3,1.4-0.3c0.5,0,1,0.1,1.4,0.2c0.3,0.1,0.6,0.3,0.8,0.3v-4.1h1.6
	v11.3c0,0.3,0,0.6,0,0.9h-1.6L185.2,60.5z M185.2,55c-0.2-0.1-0.4-0.3-0.7-0.4c-0.4-0.2-0.9-0.3-1.4-0.2c-0.4,0-0.8,0.1-1.1,0.2
	c-0.3,0.1-0.6,0.4-0.9,0.6c-0.3,0.3-0.5,0.6-0.6,1c-0.1,0.4-0.2,0.9-0.2,1.3c0,0.4,0,0.8,0.1,1.1c0.1,0.3,0.2,0.7,0.4,0.9
	c0.2,0.3,0.5,0.5,0.8,0.6c0.3,0.2,0.7,0.2,1.1,0.2c0.4,0,0.8-0.1,1.1-0.2c0.3-0.1,0.5-0.3,0.7-0.6c0.2-0.2,0.3-0.5,0.4-0.8
	c0.1-0.3,0.1-0.5,0.1-0.8L185.2,55z"/>
<path class="st0" d="M197.8,61.9c-0.6,0-1.2-0.1-1.8-0.4c-0.5-0.2-1-0.6-1.4-1c-0.4-0.4-0.7-0.9-0.9-1.4c-0.5-1.1-0.5-2.4,0-3.5
	c0.2-0.5,0.5-1,0.9-1.4c0.4-0.4,0.9-0.7,1.4-1c0.6-0.2,1.2-0.4,1.8-0.4c1.2,0,2.4,0.5,3.2,1.3c0.4,0.4,0.7,0.9,0.9,1.4
	c0.7,1.7,0.3,3.6-0.9,4.9c-0.4,0.4-0.9,0.8-1.4,1C199.1,61.7,198.4,61.9,197.8,61.9z M197.8,60.4c0.4,0,0.8-0.1,1.2-0.3
	c0.3-0.2,0.6-0.4,0.9-0.7c0.2-0.3,0.4-0.6,0.6-1c0.3-0.7,0.3-1.5,0-2.3c-0.1-0.4-0.3-0.7-0.6-1c-0.2-0.3-0.6-0.5-0.9-0.7
	c-0.4-0.2-0.8-0.3-1.2-0.3c-0.4,0-0.8,0.1-1.2,0.3c-0.3,0.2-0.6,0.4-0.9,0.7c-0.2,0.3-0.4,0.6-0.6,1c-0.1,0.4-0.2,0.8-0.2,1.1
	c0,0.4,0.1,0.8,0.2,1.1c0.1,0.4,0.3,0.7,0.6,1c0.2,0.3,0.6,0.5,0.9,0.7C197,60.3,197.4,60.4,197.8,60.4L197.8,60.4z"/>
<path class="st0" d="M216.9,49.4h4.1c0.9,0,1.8,0.1,2.7,0.4c0.8,0.2,1.5,0.6,2.1,1.1c0.6,0.5,1.1,1.2,1.4,1.9
	c0.3,0.9,0.5,1.8,0.5,2.7c0,0.9-0.1,1.8-0.5,2.7c-0.3,0.7-0.8,1.4-1.4,1.9c-0.6,0.5-1.3,0.9-2.1,1.1c-0.9,0.2-1.8,0.4-2.7,0.4h-4.1
	V49.4z M220.9,60c1.5,0,2.7-0.4,3.6-1.1c0.8-0.8,1.3-1.9,1.3-3.3c0-1.5-0.4-2.6-1.2-3.4c-0.8-0.8-2-1.2-3.7-1.2h-2.2V60L220.9,60z"
	/>
<path class="st0" d="M234.3,49.7h1.8v1.8h-1.8V49.7z M234.4,53.1h1.7v8.5h-1.7L234.4,53.1z"/>
<path class="st0" d="M244.1,63.3c0.3,0.2,0.7,0.4,1,0.5c0.5,0.2,1,0.2,1.5,0.2c0.7,0.1,1.3-0.2,1.8-0.7c0.4-0.5,0.6-1.1,0.6-1.8v-1
	c-0.1,0.1-0.2,0.2-0.3,0.3c-0.2,0.1-0.3,0.3-0.5,0.4c-0.2,0.1-0.5,0.2-0.8,0.3c-0.3,0.1-0.7,0.1-1,0.1c-0.6,0-1.1-0.1-1.7-0.3
	c-0.5-0.2-0.9-0.5-1.2-0.9c-0.3-0.4-0.6-0.8-0.8-1.3c-0.2-0.5-0.3-1.1-0.3-1.7c0-0.6,0.1-1.2,0.4-1.8c0.2-0.5,0.6-1,1-1.4
	c0.4-0.4,0.9-0.7,1.5-1c0.6-0.2,1.3-0.3,1.9-0.3c0.7,0,1.3,0.1,1.9,0.2c0.5,0.1,1,0.2,1.4,0.4v8.1c0.1,1.1-0.3,2.1-1.1,2.9
	c-0.7,0.7-1.7,1-3,1c-0.7,0-1.4-0.1-2.1-0.3c-0.4-0.2-0.9-0.4-1.2-0.7L244.1,63.3z M249.1,54.6c-0.1,0-0.3-0.1-0.6-0.2
	c-0.4-0.1-0.8-0.1-1.2-0.1c-0.4,0-0.9,0.1-1.3,0.2c-0.7,0.3-1.3,0.9-1.6,1.6c-0.2,0.4-0.2,0.8-0.2,1.2c0,0.4,0,0.7,0.1,1.1
	c0.1,0.3,0.2,0.6,0.4,0.9c0.2,0.3,0.5,0.5,0.8,0.6c0.4,0.2,0.7,0.2,1.1,0.2c0.4,0,0.7-0.1,1.1-0.2c0.3-0.1,0.5-0.3,0.7-0.5
	c0.2-0.2,0.3-0.4,0.4-0.7c0.1-0.2,0.1-0.5,0.1-0.8L249.1,54.6z"/>
<path class="st0" d="M257.5,49.7h1.8v1.8h-1.8V49.7z M257.6,53.1h1.6v8.5h-1.6V53.1z"/>
<path class="st0" d="M266.9,54.5h-1.5v-1.4h1.5v-2.8h1.7v2.8h2.5v1.4h-2.5v4.2c0,0.5,0.1,1,0.3,1.4c0.2,0.3,0.6,0.4,0.9,0.4
	c0.3,0,0.5,0,0.8-0.1c0.2-0.1,0.4-0.3,0.6-0.4l0.8,1c-0.6,0.7-1.5,1-2.4,1c-0.9,0-1.6-0.2-2-0.7c-0.4-0.5-0.6-1.2-0.6-2.3
	L266.9,54.5z"/>
<path class="st0" d="M283.1,60.6c-0.3,0.4-0.8,0.8-1.3,1c-0.5,0.2-1.1,0.3-1.6,0.3c-0.4,0-0.7,0-1.1-0.1c-0.3-0.1-0.7-0.2-1-0.5
	c-0.3-0.2-0.5-0.5-0.7-0.8c-0.2-0.4-0.3-0.8-0.3-1.2c0-0.8,0.3-1.7,1-2.2c0.6-0.5,1.6-0.8,2.8-0.8c0.2,0,0.4,0,0.6,0l0.6,0l0.5,0
	c0.1,0,0.2,0,0.3,0V56c0-0.5-0.2-1-0.6-1.4c-0.5-0.3-1-0.4-1.6-0.4c-0.5,0-1.1,0.1-1.5,0.3c-0.3,0.1-0.7,0.3-1,0.5l-0.8-1.1
	c0.2-0.1,0.3-0.3,0.5-0.4c0.2-0.1,0.5-0.2,0.7-0.3c0.3-0.1,0.6-0.2,1-0.3c0.4-0.1,0.8-0.1,1.2-0.1c0.9-0.1,1.8,0.2,2.6,0.8
	c0.6,0.6,1,1.4,0.9,2.3v5c0,0.3,0,0.5,0,0.8h-1.5L283.1,60.6z M283.1,57.6c-0.1,0-0.2,0-0.3,0c-0.1,0-0.3,0-0.5,0l-0.6,0
	c-0.2,0-0.4,0-0.6,0c-0.4,0-0.8,0-1.1,0.2c-0.3,0.1-0.5,0.2-0.7,0.4c-0.2,0.2-0.3,0.3-0.3,0.5c-0.1,0.2-0.1,0.4-0.1,0.6
	c0,0.4,0.2,0.8,0.5,1.1c0.4,0.3,0.9,0.4,1.3,0.4c0.3,0,0.6-0.1,0.9-0.2c0.3-0.1,0.5-0.3,0.8-0.4c0.2-0.2,0.4-0.4,0.5-0.6
	c0.1-0.2,0.2-0.5,0.2-0.7L283.1,57.6z"/>
<path class="st0" d="M291.5,49.4h1.6v12.2h-1.6V49.4z"/>
</svg>
